<svg id="Layer_1" data-name="Layer 1" xmlns="http://www.w3.org/2000/svg" viewBox="0 0 219.06 172.57"><title>store-locator-OTGO</title><polygon points="184.44 53.22 55.49 50.22 181.64 38.46 184.44 53.22" style="fill:#d5d4cf"/><polygon points="175.47 38.97 30 38.97 172.32 22.36 175.47 38.97" style="fill:#d5d4cf"/><polygon points="184.44 96.22 28.49 96.22 181.64 81.46 184.44 96.22" style="fill:#d5d4cf"/><polygon points="175.47 124.98 0 124.98 172.32 108.37 175.47 124.98" style="fill:#d5d4cf"/><rect x="121.5" y="7.02" width="84.79" height="160.74" rx="10.7" ry="10.7" transform="translate(24.5 -41.51) rotate(15.41)" style="fill:#ee4799"/><rect x="129.21" y="20.53" width="71.15" height="127.26" transform="translate(23.68 -41.86) rotate(15.41)" style="fill:#fff"/><circle cx="145.27" cy="154.98" r="4.42" transform="translate(-47.34 252.75) rotate(-74.59)" style="fill:#fff;stroke:#fff;stroke-miterlimit:10"/><path d="M158.79,48.57a16.5,16.5,0,0,1,5,2.28,12.81,12.81,0,0,1,3.5,3.71,13,13,0,0,1,1.95,5.25,13.54,13.54,0,0,1-.39,5.64,13.33,13.33,0,0,1-2.56,4.88,13.74,13.74,0,0,1-4.32,3.5,13.33,13.33,0,0,1-7,1.43,26,26,0,0,1-4.5-.93l-3.63-1a14.47,14.47,0,0,1-2.24-.78,3.31,3.31,0,0,1-1.19-.95,4.12,4.12,0,0,1-1.13-2.85,2,2,0,0,1,0-.48c0-.15.06-0.32,0.1-0.52s0.1-.44.18-0.73l0.32-1.13,4.05-14.32,0.36-1.29q0.14-.51.25-0.81a3.39,3.39,0,0,1,.2-0.47,4.14,4.14,0,0,1,.23-0.38q1.74-2.58,5.53-1.51Zm-6.7,17.57q1.09,0.31,1.83.48a9.56,9.56,0,0,0,1.28.22,4.07,4.07,0,0,0,.93,0A4.53,4.53,0,0,0,157,66.6a5.16,5.16,0,0,0,2-1.38,5.28,5.28,0,0,0,1.22-2.16,5.23,5.23,0,0,0-1.49-5.27,4.8,4.8,0,0,0-1.24-.81,13.33,13.33,0,0,0-1.91-.67l-0.7-.2Z" transform="translate(-4.61 -1.11)" style="fill:#ef8225"/><path d="M185.08,56a16.5,16.5,0,0,1,5,2.28,12.81,12.81,0,0,1,3.5,3.71,13,13,0,0,1,1.95,5.25,13.55,13.55,0,0,1-.39,5.64,13.33,13.33,0,0,1-2.56,4.88,13.75,13.75,0,0,1-4.32,3.5,13.33,13.33,0,0,1-7,1.43,26,26,0,0,1-4.5-.93l-3.63-1a14.47,14.47,0,0,1-2.24-.78,3.32,3.32,0,0,1-1.19-.95,4.12,4.12,0,0,1-1.13-2.85,2,2,0,0,1,0-.48c0-.15.06-0.32,0.1-0.52s0.1-.44.18-0.73l0.32-1.13L173.24,59l0.36-1.29q0.14-.51.25-0.81a3.38,3.38,0,0,1,.2-0.47,4.13,4.13,0,0,1,.23-0.38q1.74-2.58,5.53-1.51Zm-6.7,17.57q1.09,0.31,1.83.48a9.57,9.57,0,0,0,1.28.22,4.08,4.08,0,0,0,.93,0,4.56,4.56,0,0,0,.86-0.22,5.16,5.16,0,0,0,2-1.38,5.28,5.28,0,0,0,1.22-2.16,5.23,5.23,0,0,0-1.49-5.27,4.8,4.8,0,0,0-1.24-.81,13.34,13.34,0,0,0-1.91-.67l-0.7-.2Z" transform="translate(-4.61 -1.11)" style="fill:#ee4799"/><path d="M141.5,85.56a2.62,2.62,0,0,1-1,1.54,1.9,1.9,0,0,1-1.65.23,2,2,0,0,1-.89-0.52,2.08,2.08,0,0,1-.53-0.88q-0.06-.21-0.09-0.39a1.51,1.51,0,0,1,0-.38,3.35,3.35,0,0,1,.09-0.5q0.07-.3.2-0.76l2-7.17a3.61,3.61,0,0,1,.41-1,1.93,1.93,0,0,1,.63-0.58,2.06,2.06,0,0,1,.83-0.26,2.82,2.82,0,0,1,1,.12l1.69,0.48q0.74,0.21,1.27.41a6,6,0,0,1,.93.43,4.36,4.36,0,0,1,.7.51,4.09,4.09,0,0,1,.58.65,4.43,4.43,0,0,1,.84,1.91,4.55,4.55,0,0,1-.1,2.08,4.39,4.39,0,0,1-1,1.82,4.71,4.71,0,0,1-1.76,1.19,4.28,4.28,0,0,1-1.48.32,5.63,5.63,0,0,1-1.63-.24l-0.68-.19Zm1.4-4.95a2.48,2.48,0,0,0,1.08.19,0.59,0.59,0,0,0,.47-0.48,0.55,0.55,0,0,0-.13-0.55,1.41,1.41,0,0,0-.68-0.37l-0.37-.11Z" transform="translate(-4.61 -1.11)" style="fill:#ef8225"/><path d="M154.13,87.47a4.14,4.14,0,0,1,1,.39,1.91,1.91,0,0,1,.57.55,1.88,1.88,0,0,1,.26,1.62,2.08,2.08,0,0,1-.41.77,1.81,1.81,0,0,1-.67.52,1.65,1.65,0,0,1-.36.13,1.52,1.52,0,0,1-.38,0,2.65,2.65,0,0,1-.45-0.06l-0.6-.15-3.14-.89a9.44,9.44,0,0,1-1-.32,2.65,2.65,0,0,1-.52-0.28,1.9,1.9,0,0,1-.74-1.8V87.78a1.54,1.54,0,0,1,0-.22q0-.13.08-0.32l0.15-.51,1.88-6.66q0.11-.39.19-0.62c0.05-.16.1-0.29,0.14-0.39a1.38,1.38,0,0,1,.13-0.25l0.16-.23a1.66,1.66,0,0,1,.57-0.5,2.24,2.24,0,0,1,.69-0.24l0.33,0,0.32,0,0.45,0.1,0.71,0.19L156,78.83l0.7,0.2,0.4,0.13,0.23,0.1,0.19,0.09a1.92,1.92,0,0,1,.84.93,1.83,1.83,0,0,1,.06,1.23,2.13,2.13,0,0,1-.41.79,1.81,1.81,0,0,1-.67.51,1.69,1.69,0,0,1-.72.16,3.53,3.53,0,0,1-.95-0.16l-2-.57-0.24.85,1.6,0.45a1.77,1.77,0,0,1,1.08.74,1.41,1.41,0,0,1,.14,1.17,1.49,1.49,0,0,1-.86,1,1.4,1.4,0,0,1-.58.11,3.48,3.48,0,0,1-.76-0.15L152.53,86l-0.26.92Z" transform="translate(-4.61 -1.11)" style="fill:#ef8225"/><path d="M166.3,91.54a2.41,2.41,0,0,1,.11.74,2.58,2.58,0,0,1-.09.68,2,2,0,0,1-1,1.24,2.18,2.18,0,0,1-.76.24,2.08,2.08,0,0,1-.83-0.07A1.91,1.91,0,0,1,162.33,93l-0.89-3.25L161,91.38a2.12,2.12,0,0,1-.39.76,2.18,2.18,0,0,1-.6.52,2,2,0,0,1-1.57.19,2.18,2.18,0,0,1-.83-0.44,1.93,1.93,0,0,1-.55-0.74,2.84,2.84,0,0,1,0-1.86l2.14-7.56a3.39,3.39,0,0,1,.45-1,1.76,1.76,0,0,1,.72-0.58,2,2,0,0,1,.85-0.22,4.38,4.38,0,0,1,1.14.2L164,81.11a11.37,11.37,0,0,1,1.15.37,7.73,7.73,0,0,1,.77.37,4.57,4.57,0,0,1,1.13,1,4.52,4.52,0,0,1,.74,1.25,4.76,4.76,0,0,1,.31,1.43A4.42,4.42,0,0,1,168,87a4.3,4.3,0,0,1-.76,1.52,5.84,5.84,0,0,1-1.43,1.23Zm-3.85-5.4,0.17,0,0.28,0.08q0.91,0.3,1.1-.38T163.24,85l-0.18-.05-0.23-.09Z" transform="translate(-4.61 -1.11)" style="fill:#ef8225"/><path d="M176.53,85.56a2,2,0,0,1,2.67-.08,2.19,2.19,0,0,1,.53.63,2.25,2.25,0,0,1,.26.77,2,2,0,0,1-.05.82,1.92,1.92,0,0,1-.61,1l-2.91,2.41L178,95a1.77,1.77,0,0,1,.07,1.21,2.05,2.05,0,0,1-.39.75,2.2,2.2,0,0,1-.63.53,2.23,2.23,0,0,1-.77.26,1.93,1.93,0,0,1-.82-0.05,2.11,2.11,0,0,1-.76-0.39,1.59,1.59,0,0,1-.48-0.61L172.29,92l-0.6,2.12a2.59,2.59,0,0,1-1,1.54,1.92,1.92,0,0,1-1.65.22,2,2,0,0,1-1.33-1.05,2.56,2.56,0,0,1-.07-1.85l2.23-7.87a2.48,2.48,0,0,1,1-1.48,1.94,1.94,0,0,1,1.65-.21,2.11,2.11,0,0,1,.79.42,2.09,2.09,0,0,1,.54.69,1.89,1.89,0,0,1,.22.8,3.15,3.15,0,0,1-.14,1l-0.56,2Z" transform="translate(-4.61 -1.11)" style="fill:#ef8225"/><path d="M182.39,99.89a7,7,0,0,1-1.75-.75,5.26,5.26,0,0,1-1.28-1.08,3.43,3.43,0,0,1-.7-1.26,2.36,2.36,0,0,1,0-1.32A1.92,1.92,0,0,1,179,94.8a1.83,1.83,0,0,1,.55-0.47,1.94,1.94,0,0,1,.7-0.23,1.89,1.89,0,0,1,.77.06,1.94,1.94,0,0,1,.67.34,3.06,3.06,0,0,1,.6.66l0.42,0.56L183,96a0.7,0.7,0,0,0,.19.16l0.2,0.08a0.51,0.51,0,0,0,.42,0,0.56,0.56,0,0,0,.25-0.35,0.62,0.62,0,0,0-.17-0.6l-0.07-.07-0.11-.1L183.48,95l-0.34-.25-0.45-.32-0.45-.31a3.64,3.64,0,0,1-1.68-4.25,4.1,4.1,0,0,1,.79-1.54,4,4,0,0,1,1.28-1,4.31,4.31,0,0,1,1.66-.42,6,6,0,0,1,3.4.87,4.67,4.67,0,0,1,1.09.92,2.93,2.93,0,0,1,.6,1.08,2,2,0,0,1,0,1.14,1.76,1.76,0,0,1-.78,1.08,1.55,1.55,0,0,1-1.27.15,2.08,2.08,0,0,1-.75-0.38,4.66,4.66,0,0,1-.73-0.79,3.08,3.08,0,0,0-.4-0.49,0.82,0.82,0,0,0-.32-0.19,0.49,0.49,0,0,0-.61.34,0.53,0.53,0,0,0,.12.51,4.82,4.82,0,0,0,.85.68,10.47,10.47,0,0,1,1.32,1,5.35,5.35,0,0,1,.92,1,3.44,3.44,0,0,1,.55,1.5,4.26,4.26,0,0,1-.13,1.74,4.43,4.43,0,0,1-.75,1.5,4.2,4.2,0,0,1-1.23,1.09,4.11,4.11,0,0,1-1.72.52A6,6,0,0,1,182.39,99.89Z" transform="translate(-4.61 -1.11)" style="fill:#ef8225"/><path d="M192.55,91.61a0.58,0.58,0,0,0,.81-0.38,0.52,0.52,0,0,0-.11-0.51,1,1,0,0,0-.47-0.24l-0.89-.25-0.58,2,0.25,0.07,0.27-.95,0.46,0.13,0.08,0.29,0.24,0.83,0.3,0.08-0.26-.83Zm-0.28-.29-0.38-.11,0.21-.72,0.58,0.17c0.25,0.07.52,0.19,0.43,0.51S192.55,91.4,192.26,91.32Z" transform="translate(-4.61 -1.11)" style="fill:#ff671b;fill-rule:evenodd"/><path d="M194,92.28a1.92,1.92,0,0,0,.12-0.32,1.9,1.9,0,0,0-3.67-1,1.91,1.91,0,0,0,1.32,2.36,1.9,1.9,0,0,0,2.23-1l-0.22-.06a1.67,1.67,0,0,1-3.16-.89h0a1.76,1.76,0,0,1,.06-0.33,1.67,1.67,0,0,1,3.22.91,1.7,1.7,0,0,1-.12.31Z" transform="translate(-4.61 -1.11)" style="fill:#ff671b;fill-rule:evenodd"/></svg>